<mxfile host="app.diagrams.net" agent="Mozilla/5.0 (Macintosh; Intel Mac OS X 10_15_7) AppleWebKit/537.36 (KHTML, like Gecko) Chrome/130.0.0.0 Safari/537.36" version="24.8.3">
  <diagram name="Page-1" id="QsTU6SZVu2KHSKTY9hgP">
    <mxGraphModel dx="1735" dy="1175" grid="1" gridSize="10" guides="1" tooltips="1" connect="1" arrows="1" fold="1" page="1" pageScale="1" pageWidth="827" pageHeight="1169" math="0" shadow="0">
      <root>
        <mxCell id="0" />
        <mxCell id="1" parent="0" />
        <mxCell id="_uUEOo_PpqlnbUDSa7CX-1" value="start" style="ellipse;whiteSpace=wrap;html=1;" vertex="1" parent="1">
          <mxGeometry x="320" y="20" width="120" height="80" as="geometry" />
        </mxCell>
        <mxCell id="_uUEOo_PpqlnbUDSa7CX-2" value="" style="endArrow=none;html=1;rounded=0;" edge="1" parent="1">
          <mxGeometry width="50" height="50" relative="1" as="geometry">
            <mxPoint x="380" y="170" as="sourcePoint" />
            <mxPoint x="380" y="100" as="targetPoint" />
          </mxGeometry>
        </mxCell>
        <mxCell id="_uUEOo_PpqlnbUDSa7CX-3" value="input(enter any number from 1-12)" style="shape=parallelogram;perimeter=parallelogramPerimeter;whiteSpace=wrap;html=1;fixedSize=1;" vertex="1" parent="1">
          <mxGeometry x="265" y="170" width="230" height="60" as="geometry" />
        </mxCell>
        <mxCell id="_uUEOo_PpqlnbUDSa7CX-4" value="" style="endArrow=none;html=1;rounded=0;" edge="1" parent="1">
          <mxGeometry width="50" height="50" relative="1" as="geometry">
            <mxPoint x="380" y="290" as="sourcePoint" />
            <mxPoint x="380" y="230" as="targetPoint" />
          </mxGeometry>
        </mxCell>
        <mxCell id="_uUEOo_PpqlnbUDSa7CX-7" style="edgeStyle=orthogonalEdgeStyle;rounded=0;orthogonalLoop=1;jettySize=auto;html=1;" edge="1" parent="1" source="_uUEOo_PpqlnbUDSa7CX-5">
          <mxGeometry relative="1" as="geometry">
            <mxPoint x="160" y="560" as="targetPoint" />
          </mxGeometry>
        </mxCell>
        <mxCell id="_uUEOo_PpqlnbUDSa7CX-10" style="edgeStyle=orthogonalEdgeStyle;rounded=0;orthogonalLoop=1;jettySize=auto;html=1;" edge="1" parent="1" source="_uUEOo_PpqlnbUDSa7CX-5">
          <mxGeometry relative="1" as="geometry">
            <mxPoint x="680" y="550" as="targetPoint" />
          </mxGeometry>
        </mxCell>
        <mxCell id="_uUEOo_PpqlnbUDSa7CX-5" value="if number = 1,3,5,7,8,10,12" style="rhombus;whiteSpace=wrap;html=1;" vertex="1" parent="1">
          <mxGeometry x="285" y="290" width="190" height="180" as="geometry" />
        </mxCell>
        <mxCell id="_uUEOo_PpqlnbUDSa7CX-8" value="print(Januray,march,may,july,&lt;div&gt;august,october,december&amp;nbsp;&lt;div&gt;+ 31 days )&lt;/div&gt;&lt;/div&gt;" style="shape=parallelogram;perimeter=parallelogramPerimeter;whiteSpace=wrap;html=1;fixedSize=1;" vertex="1" parent="1">
          <mxGeometry x="50" y="560" width="230" height="80" as="geometry" />
        </mxCell>
        <mxCell id="_uUEOo_PpqlnbUDSa7CX-9" value="Yes" style="text;html=1;align=center;verticalAlign=middle;resizable=0;points=[];autosize=1;strokeColor=none;fillColor=none;" vertex="1" parent="1">
          <mxGeometry x="170" y="348" width="40" height="30" as="geometry" />
        </mxCell>
        <mxCell id="_uUEOo_PpqlnbUDSa7CX-12" value="print(february,april,june,september,&lt;div&gt;november)&lt;/div&gt;" style="shape=parallelogram;perimeter=parallelogramPerimeter;whiteSpace=wrap;html=1;fixedSize=1;" vertex="1" parent="1">
          <mxGeometry x="560" y="555" width="230" height="85" as="geometry" />
        </mxCell>
        <mxCell id="_uUEOo_PpqlnbUDSa7CX-16" value="" style="endArrow=none;html=1;rounded=0;" edge="1" parent="1">
          <mxGeometry width="50" height="50" relative="1" as="geometry">
            <mxPoint x="160" y="830" as="sourcePoint" />
            <mxPoint x="160" y="640" as="targetPoint" />
          </mxGeometry>
        </mxCell>
        <mxCell id="_uUEOo_PpqlnbUDSa7CX-17" value="" style="endArrow=none;html=1;rounded=0;entryX=-0.008;entryY=0.39;entryDx=0;entryDy=0;entryPerimeter=0;" edge="1" parent="1" target="_uUEOo_PpqlnbUDSa7CX-20">
          <mxGeometry width="50" height="50" relative="1" as="geometry">
            <mxPoint x="160" y="830" as="sourcePoint" />
            <mxPoint x="360" y="830" as="targetPoint" />
          </mxGeometry>
        </mxCell>
        <mxCell id="_uUEOo_PpqlnbUDSa7CX-18" value="" style="endArrow=none;html=1;rounded=0;" edge="1" parent="1">
          <mxGeometry width="50" height="50" relative="1" as="geometry">
            <mxPoint x="680" y="830" as="sourcePoint" />
            <mxPoint x="680" y="640" as="targetPoint" />
          </mxGeometry>
        </mxCell>
        <mxCell id="_uUEOo_PpqlnbUDSa7CX-19" value="" style="endArrow=none;html=1;rounded=0;exitX=1.023;exitY=0.41;exitDx=0;exitDy=0;exitPerimeter=0;" edge="1" parent="1" source="_uUEOo_PpqlnbUDSa7CX-20">
          <mxGeometry width="50" height="50" relative="1" as="geometry">
            <mxPoint x="490" y="830" as="sourcePoint" />
            <mxPoint x="680" y="830" as="targetPoint" />
          </mxGeometry>
        </mxCell>
        <mxCell id="_uUEOo_PpqlnbUDSa7CX-22" style="edgeStyle=orthogonalEdgeStyle;rounded=0;orthogonalLoop=1;jettySize=auto;html=1;" edge="1" parent="1" source="_uUEOo_PpqlnbUDSa7CX-20">
          <mxGeometry relative="1" as="geometry">
            <mxPoint x="435" y="1000" as="targetPoint" />
          </mxGeometry>
        </mxCell>
        <mxCell id="_uUEOo_PpqlnbUDSa7CX-20" value="connect" style="ellipse;whiteSpace=wrap;html=1;" vertex="1" parent="1">
          <mxGeometry x="370" y="790" width="130" height="100" as="geometry" />
        </mxCell>
        <mxCell id="_uUEOo_PpqlnbUDSa7CX-23" value="Stop" style="ellipse;whiteSpace=wrap;html=1;" vertex="1" parent="1">
          <mxGeometry x="382.5" y="1000" width="105" height="80" as="geometry" />
        </mxCell>
        <mxCell id="_uUEOo_PpqlnbUDSa7CX-24" value="NO" style="text;html=1;align=center;verticalAlign=middle;resizable=0;points=[];autosize=1;strokeColor=none;fillColor=none;" vertex="1" parent="1">
          <mxGeometry x="600" y="338" width="40" height="30" as="geometry" />
        </mxCell>
      </root>
    </mxGraphModel>
  </diagram>
</mxfile>
